<svg xmlns="http://www.w3.org/2000/svg" xmlns:xlink="http://www.w3.org/1999/xlink" width="500" zoomAndPan="magnify" viewBox="0 0 375 374.999991" height="500" preserveAspectRatio="xMidYMid meet" version="1.0"><defs><clipPath id="2e016a2769"><path d="M 23.863281 84 L 287 84 L 287 261 L 23.863281 261 Z M 23.863281 84 " clip-rule="nonzero"/></clipPath><clipPath id="4365b58108"><path d="M 180 58.789062 L 350.863281 58.789062 L 350.863281 261 L 180 261 Z M 180 58.789062 " clip-rule="nonzero"/></clipPath><clipPath id="048ef512b2"><path d="M 70 188 L 178 188 L 178 289.039062 L 70 289.039062 Z M 70 188 " clip-rule="nonzero"/></clipPath><clipPath id="2ca55a9a80"><path d="M 88 136 L 305 136 L 305 289.039062 L 88 289.039062 Z M 88 136 " clip-rule="nonzero"/></clipPath><clipPath id="01b6bbb7ff"><path d="M 138 213 L 237 213 L 237 289.039062 L 138 289.039062 Z M 138 213 " clip-rule="nonzero"/></clipPath><clipPath id="ebd33853e5"><path d="M 75 302.78125 L 300.050781 302.78125 L 300.050781 316.210938 L 75 316.210938 Z M 75 302.78125 " clip-rule="nonzero"/></clipPath></defs><g clip-path="url(#2e016a2769)"><path fill="#ffab09" d="M 170.546875 105.382812 L 180.691406 120.863281 L 187.5 131.265625 L 272.378906 260.84375 L 286.054688 260.84375 L 192.277344 117.785156 L 187.5 110.488281 L 177.355469 95.011719 L 170.546875 84.640625 L 70.355469 237.511719 L 38.484375 134.082031 L 23.890625 125.34375 L 63.058594 252.402344 L 65.644531 260.84375 L 68.65625 260.84375 L 73.234375 253.839844 Z M 170.546875 105.382812 " fill-opacity="1" fill-rule="evenodd"/></g><path fill="#ffab09" d="M 314.71875 147.136719 L 300.125 155.875 L 290.996094 185.648438 L 299.109375 198.019531 Z M 314.71875 147.136719 " fill-opacity="1" fill-rule="evenodd"/><path fill="#ffab09" d="M 84 185.648438 L 74.839844 155.875 L 60.277344 147.136719 L 75.886719 198.019531 Z M 84 185.648438 " fill-opacity="1" fill-rule="evenodd"/><g clip-path="url(#4365b58108)"><path fill="#ffab09" d="M 336.511719 134.082031 L 304.640625 237.511719 L 192.277344 66.054688 L 187.5 58.789062 L 182.722656 66.054688 L 180.332031 69.71875 L 187.5 79.535156 L 301.761719 253.839844 L 306.34375 260.84375 L 309.351562 260.84375 L 311.9375 252.402344 L 351.105469 125.34375 Z M 336.511719 134.082031 " fill-opacity="1" fill-rule="evenodd"/></g><g clip-path="url(#048ef512b2)"><path fill="#ffab09" d="M 170.546875 188.070312 L 122.875 260.808594 L 122.839844 260.84375 L 111.714844 277.792969 L 70.8125 277.824219 L 74.316406 289.179688 L 117.867188 289.179688 L 136.453125 260.84375 L 177.355469 198.445312 Z M 170.546875 188.070312 " fill-opacity="1" fill-rule="evenodd"/></g><g clip-path="url(#2ca55a9a80)"><path fill="#ffab09" d="M 252.15625 260.84375 C 227.1875 222.789062 202.289062 184.765625 177.355469 146.710938 L 174.148438 141.804688 L 170.546875 136.304688 L 88.910156 260.84375 L 102.621094 260.84375 L 170.582031 157.117188 C 192.996094 191.308594 215.835938 226.160156 238.542969 260.808594 L 257.128906 289.148438 L 300.679688 289.148438 L 304.183594 277.761719 L 263.28125 277.761719 Z M 252.15625 260.84375 " fill-opacity="1" fill-rule="evenodd"/></g><g clip-path="url(#01b6bbb7ff)"><path fill="#ffab09" d="M 138.1875 289.179688 L 236.808594 289.179688 L 187.5 213.953125 Z M 187.5 277.792969 L 159.261719 277.792969 L 187.5 234.699219 L 215.769531 277.792969 Z M 187.5 277.792969 " fill-opacity="1" fill-rule="evenodd"/></g><g clip-path="url(#ebd33853e5)"><path fill="#ffab09" d="M 75 302.78125 L 300.023438 302.78125 L 300.023438 316.210938 L 75 316.210938 Z M 75 302.78125 " fill-opacity="1" fill-rule="nonzero"/></g></svg>